PathFileType	4	(X/Y/Z)	c:\Git\powerlifing_model_clean\simulations\HC835B\Session1\HC835B_CUT_0005\marker_experimental.trc
DataRate	CameraRate	NumFrames	NumMarkers	Units	OrigDataRate	OrigDataStartFrame	OrigNumFrames
240.000000	240.000000	4	38	mm	240.000000	37	75
Frame#	Time	RPSI			LPSI			RASI			LASI			RTH1			RTH2			RTH3			RTH4			RSK1			RSK2			RSK3			RSK4			RCAL1			RCAL2			RCAL3			RST			RPT			RTN			RFMB			RSMB			RVMB			RFMH			RSMH			RVMH			RPM			LTH1			LTH2			LTH3			LTH4			LSK1			LSK2			LSK3			LSK4			LCAL1			LCAL2			LCAL3			LFMH			LVMH			
		X1	Y1	Z1	X2	Y2	Z2	X3	Y3	Z3	X4	Y4	Z4	X5	Y5	Z5	X6	Y6	Z6	X7	Y7	Z7	X8	Y8	Z8	X9	Y9	Z9	X10	Y10	Z10	X11	Y11	Z11	X12	Y12	Z12	X13	Y13	Z13	X14	Y14	Z14	X15	Y15	Z15	X16	Y16	Z16	X17	Y17	Z17	X18	Y18	Z18	X19	Y19	Z19	X20	Y20	Z20	X21	Y21	Z21	X22	Y22	Z22	X23	Y23	Z23	X24	Y24	Z24	X25	Y25	Z25	X26	Y26	Z26	X27	Y27	Z27	X28	Y28	Z28	X29	Y29	Z29	X30	Y30	Z30	X31	Y31	Z31	X32	Y32	Z32	X33	Y33	Z33	X34	Y34	Z34	X35	Y35	Z35	X36	Y36	Z36	X37	Y37	Z37	X38	Y38	Z38	

38	0.1541666666666667	139.4009857177735	1008.481689453125	-456.8961181640626	59.51098632812501	968.2515258789065	-400.8339843750001	114.6361312866211	951.7082519531252	-672.8010864257814	-82.86155700683595	874.2739257812502	-541.2772827148439	299.2220458984376	740.0353393554689	-685.2167358398439	266.7035827636719	726.9712524414064	-734.8391723632814	306.0375671386719	661.7156982421876	-716.4179077148439	267.0975341796876	644.4747314453126	-756.7350463867189	503.3020324707032	291.0634765625001	-601.4443969726564	495.0362548828126	254.2217102050782	-650.3391723632814	525.1486816406251	236.5684814453126	-600.2856445312501	507.3267211914064	197.3274993896485	-642.1700439453126	590.0368652343751	102.4713287353516	-492.2991943359376	564.5248413085939	61.6572952270508	-481.0584106445314	625.5711669921876	69.43325042724611	-503.8162231445314	520.3339843750001	57.24448776245119	-538.7378540039064	625.8750610351564	75.24974060058595	-568.8642578125001	509.1263122558595	67.9241409301758	-599.3269042968751	506.3778686523439	61.70779418945314	-633.5627441406251	545.5673828125001	89.66206359863283	-654.9877319335939	624.7055664062501	47.02691650390626	-611.1001586914064	497.6682434082032	45.22267150878907	-681.0407104492189	540.1408691406251	56.85119247436525	-715.2153930664064	613.6431884765626	33.06679916381837	-688.9304809570314	509.693572998047	35.10353469848634	-766.4654541015626	-95.07150268554689	618.8131103515626	-575.7727050781251	-129.5147857666016	639.2706298828126	-622.0894775390626	-108.1312561035157	561.8497314453126	-640.3687133789064	-129.6382141113282	586.9668579101564	-691.7675781250001	106.6543197631836	428.2625427246095	-526.0227050781251	124.7799301147461	378.4710083007813	-533.8671875000001	148.5839385986328	402.7785949707032	-497.6072998046876	176.5893707275391	358.0128784179688	-516.9011230468751	282.9575195312501	442.033172607422	-395.4996032714845	285.7272644042969	414.5749816894532	-356.5177001953126	329.4457092285157	438.789764404297	-387.2292785644532	359.2603454589844	263.6194763183594	-520.0020141601564	298.8370361328126	236.6051025390626	-431.3184509277345	
39	0.1583333333333333	132.7920989990235	1008.196716308594	-475.4998168945314	53.51456451416017	968.8198242187502	-419.6129150390626	108.8737945556641	951.6716308593752	-692.3935546875001	-89.90232086181642	873.0376586914065	-557.7916259765626	296.3435668945313	738.6340942382814	-697.7880249023439	264.7024841308594	723.9042968750001	-747.5129394531251	304.5309143066407	659.6688232421876	-726.9588012695314	266.4812316894532	641.0845336914064	-767.5534057617189	503.667938232422	291.3367919921876	-604.5759277343751	495.7186279296876	253.8834533691407	-653.0885009765626	525.6673583984376	236.9303894042969	-602.7122192382814	508.1171264648439	197.0964355468751	-644.1815795898439	590.3452758789064	104.1546630859375	-492.9175415039064	565.3317260742189	62.98368453979494	-481.707733154297	626.1018676757814	71.34800720214845	-504.5975646972657	521.1205444335939	57.9957733154297	-539.2999267578126	626.3268432617189	77.01294708251955	-569.4996948242189	509.8399353027345	68.6731414794922	-599.8775634765626	507.0021057128907	62.34338378906251	-634.3925170898439	545.9686889648439	89.98680114746095	-655.9299926757814	625.2703857421876	48.19912719726564	-611.8742065429689	498.1201171875001	45.18321609497071	-680.9686279296876	540.4865112304689	56.72912597656251	-715.7599487304689	614.1242065429689	33.10467147827149	-689.6160888671876	509.8646850585939	35.09563446044923	-766.5949096679689	0	0	0	-139.1004791259766	645.0078125000001	-643.5028686523439	-119.5021133422852	567.8829345703126	-664.0909423828126	-141.1790924072266	594.6029052734376	-714.6064453125001	97.88547515869143	424.1360473632814	-557.6084594726564	115.2422866821289	373.8246459960938	-568.9166870117189	140.2483825683594	396.3667907714845	-531.7430419921876	167.1504058837891	351.7985839843751	-553.9384765625001	277.5369262695313	428.4114990234376	-431.1136169433595	280.9298095703126	398.8329162597657	-393.7366943359376	324.0773620605469	423.8478088378907	-424.2552490234376	347.5329589843751	255.7507324218751	-567.5244750976564	289.0546875000001	224.8866424560547	-478.2106933593751	
40	0.1625	126.080680847168	1008.034057617188	-494.375701904297	47.54595565795899	969.4050292968752	-438.6092834472657	102.7021026611328	951.713317871094	-711.6535644531251	-96.95132446289065	871.9507446289065	-574.2588500976564	293.0140991210938	737.3131103515626	-710.1450805664064	262.5244140625001	720.8106689453126	-759.9458007812501	302.9810485839844	657.6900634765626	-736.9456176757814	265.8515625000001	637.5186157226564	-777.7581176757815	504.0991516113282	292.0162963867188	-607.7312622070314	496.2748413085939	253.9223785400391	-655.9906005859376	526.2446289062501	237.6992187500001	-605.1194458007814	508.7348632812501	197.2548980712891	-646.0992431640626	590.9786987304689	106.1191024780274	-493.7975463867189	566.3191528320314	64.53897857666017	-482.6031494140626	626.9097290039064	73.80088043212892	-505.4851074218751	522.1771240234376	59.16504669189455	-539.9160766601564	626.8497314453126	79.1843719482422	-570.3403320312501	510.6069335937501	69.86714935302736	-600.5620727539064	507.6335449218751	62.99668502807619	-634.7283935546876	546.3570556640626	90.37251281738283	-656.7954101562501	625.9181518554689	49.74243545532228	-612.6605224609376	498.5193481445314	45.34776687622071	-681.1454467773439	540.6697998046876	56.51327514648439	-716.1326904296876	614.5101318359376	33.17926025390626	-690.2982788085939	509.834930419922	34.96443557739259	-766.5788574218751	0	0	0	-149.5838012695313	650.3914184570314	-664.5402221679689	-130.6897125244141	574.0335083007814	-687.2413940429689	-152.5123901367188	603.0325317382814	-736.6812744140626	89.04998779296876	419.0488586425782	-590.0746459960939	105.4359741210938	369.0546569824219	-604.0339965820314	131.667465209961	389.3697814941407	-566.5372314453126	157.1245574951172	346.2512512207032	-590.5126953125001	271.7946166992188	414.2200012207032	-467.4538879394532	275.5391540527344	382.4212646484376	-431.865203857422	318.5565185546876	408.6993713378907	-461.784149169922	335.7818298339844	247.1099090576172	-612.8526000976564	278.5150756835938	213.1782836914063	-525.2009277343751	
41	0.1666666666666667	119.1761016845703	1008.347595214844	-513.6007690429689	41.50434112548829	970.1217041015627	-457.8270568847657	95.79258728027345	951.967224121094	-731.1940917968751	-103.4463577270508	871.6546630859377	-590.8861694335939	289.5245056152344	736.2350463867189	-722.2750854492189	260.0503540039063	717.7889404296876	-772.063171386719	301.0092163085938	656.0208129882814	-746.4345703125001	265.1101989746094	634.0144042968751	-787.2188110351565	504.3892822265626	293.3170776367188	-611.2940673828126	496.3898925781251	254.5515289306641	-658.4696655273439	526.6004028320314	239.059555053711	-607.7236938476564	509.1383361816407	198.1577148437501	-648.1140136718751	591.7756347656251	108.8313598632813	-494.7385864257814	567.5964355468751	66.99228668212892	-483.2659912109376	627.7178344726564	76.58469390869142	-506.5797424316407	523.8932495117189	61.14648437500001	-540.6888427734376	627.3156127929689	81.54965972900392	-571.3909912109376	511.5998840332032	71.58291625976564	-600.8942871093751	508.3025207519532	64.04957580566408	-635.4599609375001	545.7055664062501	92.35899353027345	-660.8376464843751	626.6040649414064	51.3706398010254	-613.5078125000001	498.812957763672	45.47550201416016	-681.0631713867189	540.9475097656251	56.27271652221681	-716.4276733398439	614.8918457031251	33.3239974975586	-690.9692382812501	510.0632934570314	35.2842140197754	-766.4853515625001	0	0	0	-159.369873046875	656.0334472656251	-684.7896118164064	-141.6305236816407	580.2352905273439	-709.7833251953126	-164.0978240966797	611.2717895507814	-758.0259399414064	80.09033203125001	413.7495422363282	-622.7933349609376	95.27546691894533	365.2650756835938	-637.8585815429689	122.8676452636719	382.2460632324219	-601.6642456054689	146.9335479736328	339.9160156250001	-628.9575195312501	265.7598571777344	399.5190734863282	-504.6002197265626	269.8671264648438	365.9133911132813	-470.7557373046876	312.5128479003907	392.8693847656251	-500.4590148925782	323.1575622558594	239.6177978515626	-660.3947143554689	267.4047851562501	201.7714843750001	-572.9234619140626	
